<?xml version="1.0" encoding="UTF-8" standalone="no"?>
<!-- Created with Inkscape (http://www.inkscape.org/) -->

<svg
   version="1.1"
   id="svg2"
   width="598.34302"
   height="201.6788"
   viewBox="0 0 353.831 119.26305"
   xmlns="http://www.w3.org/2000/svg"
   xmlns:svg="http://www.w3.org/2000/svg">
  <defs
     id="defs6" />
  <g
     id="g8"
     transform="translate(-0.36442551,-0.04845069)">
    <path
       style="fill:#000000;stroke-width:0.32"
       d="M 39.193338,118.50627 C 19.607268,114.78294 4.7838082,100.32492 0.97315821,81.228341 -1.2435518,70.119561 3.0361182,31.736611 6.7028682,29.840461 c 5.6506698,-2.92208 7.7719098,4.86495 10.4012498,38.18285 1.60759,20.37075 14.42896,32.945349 32.2223,31.602138 15.92313,-1.202038 26.28289,-12.066288 28.89267,-30.299648 1.78122,-12.44456 3.45825,-18.64614 5.355,-19.80256 4.69131,-2.86021 6.78468,0.6731 9.37985,15.8318 5.37783,31.41245 -22.60147,59.074599 -53.7606,53.151229 z m 78.475652,-1.15949 c -1.0144,-0.12547 -2.4904,-0.47486 -3.28,-0.77641 l -1.43564,-0.54827 v -2.37354 -2.37353 h 1.56858 1.56858 l 0.22238,1.916 0.22237,1.916 1.31749,0.35476 c 5.84281,1.57331 7.23315,-3.72991 1.67372,-6.38413 -6.7312,-3.21365 -8.41483,-8.5913 -3.69536,-11.803299 3.18244,-2.16593 11.71942,-1.40824 11.07804,0.98322 -0.10288,0.3836 -0.18903,1.309458 -0.19143,2.057449 l -0.004,1.36 h -1.40576 c -1.4939,0 -1.79424,-0.30251 -1.79424,-1.807201 0,-2.142618 -2.77444,-2.918648 -4.65416,-1.301788 -2.06036,1.772249 -0.94885,3.929639 3.00162,5.825989 7.85064,3.76856 8.08292,11.75349 0.37254,12.80662 -0.792,0.10818 -1.728,0.23709 -2.08,0.28647 -0.352,0.0494 -1.46996,-0.0129 -2.48436,-0.13834 z m 14.95128,-0.7322 c -6.52103,-3.10509 -5.22683,-13.3652 1.88667,-14.95714 5.18928,-1.16131 8.5898,1.84622 8.25114,7.29759 -0.0441,0.71059 -0.10384,0.72 -4.5666,0.72 h -4.52187 l 0.17756,1.09415 c 0.5279,3.25308 3.32867,4.51033 6.48637,2.9117 2.1515,-1.08923 2.95424,-0.49938 1.64909,1.21176 -1.80762,2.36991 -6.27571,3.19169 -9.36236,1.72194 z m 5.14531,-9.07749 c 0.77569,-0.77569 0.46126,-3.23431 -0.51468,-4.02459 -1.53131,-1.23998 -3.05304,0.0567 -3.38826,2.88707 l -0.19844,1.67546 h 1.78172 c 1.24237,0 1.94456,-0.16284 2.31966,-0.53794 z m 18.08684,9.4015 c -2.94473,-0.9391 -5.09994,-4.76969 -4.72539,-8.39873 0.91606,-8.875831 13.7589,-9.831029 14.25449,-1.0602 l 0.12405,2.19537 h -4.51611 c -5.08659,0 -5.13831,0.0321 -3.98172,2.46942 1.08701,2.2907 3.41918,2.90009 5.94967,1.55462 2.03695,-1.08306 2.99058,-0.53422 1.82083,1.04795 -1.64206,2.22102 -5.70523,3.21866 -8.92582,2.19157 z m 4.59807,-9.36642 c 1.08542,-1.08542 0.23088,-4.11226 -1.26711,-4.48824 -1.40456,-0.35252 -2.71003,1.50732 -2.71003,3.86082 v 1.13028 h 1.73714 c 1.15256,0 1.90637,-0.16922 2.24,-0.50286 z m 10.38608,9.35801 c -6.36149,-2.36479 -6.54373,-11.84529 -0.28322,-14.73351 4.02575,-1.85723 9.6,0.16116 9.6,3.47609 0,2.99356 -4.0565,2.09802 -4.40252,-0.97193 -0.41915,-3.71865 -4.13392,-1.09832 -4.47162,3.15419 -0.41394,5.21254 2.72824,8.03217 6.49258,5.82612 2.03355,-1.19174 2.81206,-0.62821 1.59879,1.15727 -1.43206,2.10746 -5.68653,3.15027 -8.53401,2.09177 z m 13.82763,0.0201 c -1.87607,-0.96415 -2.10175,-1.7393 -2.21782,-7.61786 l -0.10698,-5.41739 h -0.93302 c -1.59538,0 -1.37005,-1.84443 0.24197,-1.98068 1.13623,-0.096 1.20104,-0.17059 1.96423,-2.259311 l 0.78923,-2.159998 h 1.55577 1.55577 v 2.239998 2.239991 h 1.6 c 1.56444,0 1.6,0.0213 1.6,0.96 0,0.93867 -0.0356,0.96 -1.6,0.96 h -1.6 v 4.93714 c 0,5.75158 0.65441,7.03708 2.86927,5.63626 0.82492,-0.52173 1.35488,0.23121 0.78014,1.10838 -1.02316,1.56154 -4.63143,2.31306 -6.49856,1.3535 z m 19.26822,-0.35488 c -3.69138,-1.76308 -5.36103,-7.01677 -3.43965,-10.8232 2.98154,-5.906711 11.82981,-5.77001 14.41983,0.22279 3.02029,6.98837 -4.11672,13.87853 -10.98018,10.60041 z m 5.48537,-2.1204 c 0.90413,-1.54467 0.9725,-8.5406 0.0991,-10.13732 -2.47344,-4.521701 -5.84947,3.01977 -4.0932,9.14352 0.7309,2.54852 2.78497,3.0596 3.99413,0.9938 z m 25.8195,2.18751 c -1.71141,-0.65735 -1.71553,-0.66229 -1.52352,-1.82332 0.1059,-0.64031 0.19412,-1.48819 0.19606,-1.88419 0.008,-1.54449 2.44228,-0.99565 2.65613,0.59875 0.22374,1.66809 0.49077,1.92189 2.19956,2.09067 3.97956,0.39307 4.25129,-3.00111 0.32538,-4.06442 -7.8592,-2.12862 -6.7564,-10.13278 1.38245,-10.0339 2.91171,0.0354 5.14657,0.78114 4.82809,1.6111 -0.10345,0.26958 -0.18809,1.05437 -0.18809,1.74397 0,2.07941 -2.31425,1.92806 -2.84662,-0.18617 -0.37844,-1.50292 -0.63319,-1.64711 -2.58958,-1.46571 -1.12336,0.10416 -1.6038,0.60044 -1.6038,1.65667 0,1.05003 0.55425,1.40578 3.90553,2.50674 3.20718,1.05362 4.20664,2.31154 4.0308,5.07314 -0.26832,4.21381 -5.44761,6.22193 -10.77239,4.17667 z m -92.31061,0.15916 c -0.54638,-0.54639 -0.16253,-1.31683 0.74667,-1.49867 l 0.96,-0.192 v -8.94675 -8.946729 l -0.88,-0.10126 c -2.39432,-0.27549 -1.24199,-1.41027 2.1698,-2.13676 4.19642,-0.89356 3.8302,-1.83902 3.8302,9.888289 v 10.21502 l 0.8,0.20079 c 0.57436,0.14415 0.8,0.41664 0.8,0.96609 v 0.76534 h -4.10667 c -2.25866,0 -4.20266,-0.096 -4.32,-0.21333 z m 49.06667,-0.55195 c 0,-0.55149 0.22577,-0.82197 0.80808,-0.96812 l 0.80809,-0.20282 -0.0881,-5.03187 -0.0881,-5.03188 -0.88,-0.10125 c -2.24634,-0.25847 -1.11291,-1.48207 2.36751,-2.55586 4.08203,-1.25941 3.82328,-1.58593 3.58244,4.52084 -0.24073,6.10379 -0.022,8.2155 0.87513,8.45011 0.38958,0.10188 0.61492,0.44029 0.61492,0.92348 v 0.76268 h -4 -4 z m 23.68,0 c 0,-0.54945 0.22564,-0.82194 0.8,-0.96609 l 0.8,-0.20079 v -5.11391 -5.1139 h -0.96 c -2.39621,0 -1.21251,-1.3773 2.12992,-2.47827 3.48851,-1.14909 3.63008,-1.13049 3.63008,0.47703 v 1.16098 l 0.88,-0.8429 c 1.88033,-1.80104 4.57602,-2.31247 6.38261,-1.21092 1.98805,1.21219 2.16611,1.81704 2.28437,7.75958 l 0.10699,5.37585 0.77301,0.19402 c 0.54779,0.13748 0.77302,0.41699 0.77302,0.95932 v 0.76531 h -4.16 -4.16 v -0.76531 c 0,-0.54945 0.22564,-0.82194 0.8,-0.96609 l 0.8,-0.20079 v -4.88991 c 0,-5.83208 -0.48059,-6.59162 -3.34494,-5.28653 l -0.81506,0.37136 v 4.93859 c 0,4.66948 0.0349,4.94772 0.64,5.10596 0.41417,0.10831 0.64,0.43649 0.64,0.93004 v 0.76268 h -4 -4 z M 194.66986,98.740771 c -2.3229,-1.12477 -1.32631,-4.55373 1.32349,-4.55373 1.24046,0 2.72,1.20255 2.72,2.21079 0,1.98055 -2.18145,3.244558 -4.04349,2.34294 z M 42.662648,97.681611 c -11.89401,-2.15829 -20.56091,-11.19326 -22.22683,-23.17075 -1.00839,-7.25007 2.368,-59.527321 4.0554,-62.790381 1.29039,-2.4953401 5.71386,-2.4953401 7.00425,0 1.21943,2.3581 3.28284,28.049971 4.01206,49.954561 0.44148,13.26152 0.62551,14.07682 3.86056,17.10283 5.81523,5.43947 14.76477,3.89491 18.23121,-3.14643 1.15457,-2.34526 1.18089,-2.58467 1.60485,-14.5964 0.76561,-21.69146 2.82428,-47.027311 4.00707,-49.314561 1.3237,-2.5597601 5.87151,-2.3786701 6.89869,0.27471 2.0172,5.21077 4.97303,58.052941 3.61652,64.653341 -2.90199,14.12023 -16.90588,23.602159 -31.06378,21.03308 z M 147.43688,81.175061 c -2.19478,-1.15876 -3.17402,-4.74801 -2.03749,-7.46812 0.81089,-1.94072 3.81287,-3.65468 8.79032,-5.01877 l 2.60364,-0.71354 v -2.04569 c 0,-3.28761 -1.03039,-4.5739 -3.66396,-4.5739 -1.05322,0 -1.06426,0.0157 -1.29215,1.83967 -0.49295,3.94547 -3.23334,5.67997 -5.45843,3.45487 -3.34658,-3.34657 2.97266,-7.89938 10.36988,-7.47116 5.93983,0.34385 7.06342,2.40575 7.07684,12.98666 0.009,6.70009 0.10528,7.03973 1.75454,6.15707 1.2972,-0.69424 1.89489,-0.0564 1.12832,1.20412 -1.84964,3.04149 -7.20552,3.18798 -9.13073,0.24973 l -0.53047,-0.80959 -1.33719,1.09572 c -2.37357,1.94496 -5.81925,2.40849 -8.27312,1.11293 z m 8.4271,-3.40902 0.92937,-0.54899 v -3.63257 c 0,-4.11251 0.0837,-4.03432 -2.69165,-2.51475 -1.82843,1.00111 -2.58835,2.1881 -2.58835,4.043 0,2.74455 2.06461,4.0037 4.35063,2.65331 z m 41.72704,3.33315 c -7.30042,-3.47514 -6.93081,-17.13304 0.57083,-21.0933 2.12657,-1.12266 6.04374,-1.04282 7.8635,0.16027 l 1.34788,0.89111 -0.0899,-3.93111 -0.09,-3.93112 -1.28,-0.16 c -1.15428,-0.14429 -1.28946,-0.25686 -1.37627,-1.14623 l -0.0963,-0.98623 4.09626,-0.85315 c 2.25299,-0.46922 4.45631,-0.88942 4.89631,-0.93376 l 0.8,-0.0806 0.16,14.85975 0.16,14.85976 1.04,0.26939 c 0.87337,0.22623 1.04,0.4186 1.04,1.20064 0,1.06697 -0.19296,1.11463 -5.84,1.44232 l -3.12,0.18105 v -1.12646 c 0,-1.36562 0.10011,-1.36118 -1.95044,-0.0865 -2.29827,1.42868 -5.69802,1.62274 -8.13189,0.46417 z m 9.05113,-3.60229 c 0.69539,-0.48708 0.7112,-0.6432 0.7112,-7.02186 0,-7.43393 -0.0318,-7.52 -2.78007,-7.52 -3.10162,0 -4.74667,3.01224 -4.51692,8.27089 0.24082,5.5122 3.38912,8.51 6.58579,6.27097 z m 63.61994,3.54543 c -13.03619,-5.3593 -5.01708,-25.42292 8.58114,-21.46981 5.492,1.59656 7.16933,8.18252 2.08395,8.18252 -2.04762,0 -2.89894,-1.17956 -3.3188,-4.5984 l -0.23068,-1.8784 -1.23719,0.16594 c -6.40859,0.85957 -6.5359,14.89344 -0.14599,16.09219 1.85399,0.34781 3.64744,-0.0503 5.17788,-1.14937 1.45146,-1.04236 2.66095,-0.81372 2.66095,0.50303 0,3.56608 -8.59815,6.1968 -13.57126,4.1523 z m 45.09126,0.0112 c -8.43622,-3.52443 -8.62159,-16.59554 -0.29351,-20.69544 7.2418,-3.56513 14.33729,0.31986 14.36429,7.86485 l 0.009,2.57207 -6.48,0.0866 c -7.21822,0.0965 -6.77896,-0.0895 -5.99817,2.53971 1.20274,4.05005 5.55779,5.44691 9.44611,3.02979 2.64733,-1.64567 3.76419,-0.25357 1.71619,2.13907 -2.67081,3.12025 -8.49928,4.24507 -12.76413,2.46334 z m 6.93482,-13.18812 c 1.13318,-1.02552 0.69462,-4.50726 -0.73556,-5.83968 -2.06664,-1.92536 -4.45179,0.28078 -4.95775,4.58567 l -0.20963,1.78361 h 2.65887 c 2.02503,0 2.79837,-0.12625 3.24407,-0.5296 z m 13.22518,13.36072 c -5.88867,-2.73652 -7.23027,-13.52087 -2.37056,-19.05577 2.94019,-3.34868 8.59085,-4.02919 11.41626,-1.37486 l 0.7344,0.68995 -0.09,-4.14522 -0.0901,-4.14522 -0.8,-0.0896 c -2.02406,-0.22666 -2.28419,-0.37956 -2.18019,-1.28158 0.0997,-0.86493 8.44125,-3.22766 9.69568,-2.74629 0.29913,0.11478 0.38211,3.58418 0.35709,14.9291 l -0.0326,14.77956 0.96,0.1658 c 0.80266,0.13862 0.97622,0.33306 1.05894,1.18634 0.11623,1.19902 -0.003,1.23328 -5.26345,1.51901 l -3.24455,0.17621 -0.20995,-1.11929 c -0.23238,-1.23871 -0.52371,-1.3838 -1.18182,-0.58856 -1.38567,1.67448 -6.21757,2.28151 -8.75917,1.1004 z m 8.62493,-3.60249 0.81507,-0.37136 v -6.81738 c 0,-7.64124 0.0516,-7.47989 -2.39485,-7.47989 -2.43293,0 -3.68502,1.2597 -4.53065,4.55811 -1.66093,6.47863 1.73808,12.10271 6.11043,10.11052 z m -298.410392,3.21744 c -4.17397,-0.61924 -7.65742,-4.59874 -7.65323,-8.74307 0.005,-4.7254 5.45024,-69.3571211 5.92016,-70.2658611 1.48873,-2.87889 6.47877,-2.10046999 7.04456,1.09891 0.68804,3.89068 5.55334,69.4979211 5.25343,70.8410911 -1.08422,4.85575 -5.51227,7.81853 -10.56492,7.06893 z m 67.225462,-0.72875 c 0,-1.158 0.48169,-1.46382 2.32,-1.47295 l 0.88,-0.004 v -12 -12 h -1.09383 c -1.72341,0 -2.10617,-0.26792 -2.10617,-1.47424 v -1.08573 h 7.04 7.04 v 1.08576 c 0,1.20633 -0.38276,1.47424 -2.10617,1.47424 h -1.09383 v 5.12 5.12 h 4.64 4.64 v -5.12 -5.12 l -0.88,-0.004 c -1.83831,-0.009 -2.32,-0.31495 -2.32,-1.47295 v -1.08265 h 7.04 7.04 v 1.08576 c 0,1.20633 -0.38276,1.47424 -2.10617,1.47424 h -1.09383 v 12 12 l 0.88,0.004 c 1.83831,0.009 2.32,0.31495 2.32,1.47295 v 1.08268 h -7.04 -7.04 v -1.08268 c 0,-1.158 0.48169,-1.46382 2.32,-1.47295 l 0.88,-0.004 v -5.6 -5.6 h -4.64 -4.64 v 5.6 5.6 l 0.88,0.004 c 1.83831,0.009 2.32,0.31495 2.32,1.47295 v 1.08268 h -7.04 -7.04 v -1.08268 z m 54.77972,0.0441 c 0.0843,-0.8734 0.25297,-1.06474 1.06028,-1.20296 l 0.96,-0.16437 0.086,-7.25702 0.0859,-7.25703 -1.36595,-0.26842 c -3.15001,-0.61902 -2.20266,-1.733 2.92789,-3.44288 5.08795,-1.69569 5.00706,-1.70335 5.31052,0.50304 l 0.22432,1.63105 1.16566,-1.13389 c 3.53533,-3.43902 9.03456,-3.25104 11.17017,0.38182 0.87076,1.48124 0.87649,1.53065 1.06297,9.16926 0.10311,4.224 0.21111,7.70644 0.24,7.73875 0.0289,0.0323 0.44851,0.10431 0.93251,0.16 0.73326,0.0844 0.89672,0.27467 0.98028,1.14125 l 0.10027,1.04 h -5.80054 -5.80055 l 0.10027,-1.0386 c 0.0843,-0.87341 0.25296,-1.06473 1.06028,-1.20293 l 0.96,-0.16433 0.0864,-6.59946 c 0.11928,-9.11365 -1.21635,-10.96777 -5.48305,-7.61158 l -0.84333,0.66336 0.003,5.17677 c 0.004,7.28483 0.17567,8.47618 1.23976,8.59963 0.68618,0.0796 0.85557,0.28501 0.93773,1.13714 l 0.10018,1.04 h -5.80069 -5.80055 z m 58.50028,-0.0669 c 0,-1.15886 0.0558,-1.18908 2.88,-1.56019 0.41688,-0.0548 0.48,-1.61951 0.48,-11.89869 v -11.83562 l -0.96,-0.0877 c -2.19149,-0.2003 -2.4,-0.33424 -2.4,-1.54157 v -1.13713 l 8.56,0.12278 c 13.11987,0.18818 16.48689,1.95298 16.46262,8.62876 -0.0215,5.90468 -4.24811,9.19478 -11.83191,9.21018 l -2.32929,0.005 0.0893,4.24 0.0893,4.24 0.96,0.0845 c 2.83603,0.24962 3.04,0.35228 3.04,1.53 v 1.1055 h -7.52 -7.52 v -1.1055 z m 15.01777,-13.12301 c 5.51852,-2.85373 3.49038,-12.33149 -2.6388,-12.33149 h -1.49897 v 6.4 6.4 h 1.61589 c 0.88874,0 2.02359,-0.21083 2.52188,-0.46851 z m 11.22223,13.28084 c 0,-0.83483 0.1524,-0.9887 1.28,-1.29233 l 1.28,-0.34467 v -6.84481 c 0,-7.53588 -0.0779,-7.85052 -1.94286,-7.85052 -3.18157,0 -1.15881,-1.82694 3.73867,-3.37673 5.7625,-1.82353 5.21862,-2.70948 5.31932,8.66483 l 0.0849,9.58584 0.96,0.16443 c 0.80729,0.13827 0.97595,0.32964 1.06028,1.20303 l 0.10024,1.0386 h -5.94027 -5.94028 z m 32,0 c 0,-0.83528 0.15223,-0.98865 1.28366,-1.29332 l 1.28366,-0.34565 -0.0837,-12.70237 c -0.0818,-12.42438 -0.0977,-12.70447 -0.72366,-12.79913 -1.96671,-0.29739 -2.12242,-0.39629 -2.02018,-1.28302 0.0998,-0.86532 8.4415,-3.22756 9.69662,-2.74593 0.30067,0.11538 0.35408,2.4311 0.23185,10.0535 -0.0937,5.84681 -0.0396,9.90359 0.13217,9.90359 0.47895,0 6.87946,-6.57342 6.63679,-6.81608 -0.12311,-0.12316 -0.5481,-0.22392 -0.94437,-0.22392 -1.27332,0 -1.73284,-0.34851 -1.73284,-1.31424 v -0.92576 h 5.28 5.28 v 0.92576 c 0,1.00365 -0.45502,1.31424 -1.92534,1.31424 -1.40291,0 -2.23227,0.44705 -4.28567,2.31012 l -1.89102,1.71572 3.25626,6.27041 3.25625,6.27041 1.43476,0.36128 c 1.30219,0.32789 1.43476,0.45034 1.43476,1.32522 v 0.96395 l -4.69088,-0.0886 -4.69089,-0.0886 -2.21674,-4.8 c -2.63354,-5.70251 -2.56487,-5.61386 -3.59725,-4.64398 -0.9265,0.8704 -1.26684,6.92155 -0.40424,7.18729 0.22,0.0678 0.796,0.21 1.28,0.31606 0.72007,0.15778 0.88,0.36618 0.88,1.14673 v 0.9539 h -6.08 -6.08 z m -27.02666,-24.56574 c -3.50687,-0.8908 -3.66392,-5.84613 -0.21546,-6.79829 3.5155,-0.97068 6.35418,2.78312 4.18756,5.53753 -0.53612,0.68158 -2.54113,1.59757 -3.18544,1.45527 -0.088,-0.0194 -0.442,-0.10696 -0.78666,-0.19451 z"
       id="path256" />
  </g>
</svg>
